<svg width="656" height="253" viewBox="0 0 656 253" fill="none" xmlns="http://www.w3.org/2000/svg">
<path d="M52.373 216.984C50.581 216.472 48.8317 215.704 47.125 214.68C45.5037 213.571 44.0103 212.205 42.645 210.584C41.365 208.963 40.341 207.128 39.573 205.08C38.805 202.947 38.421 200.685 38.421 198.296C38.421 193.944 39.4023 190.232 41.365 187.16C43.413 184.003 46.0583 181.613 49.301 179.992C52.629 178.371 56.2557 177.56 60.181 177.56C61.6317 177.56 63.2103 177.731 64.917 178.072C66.6237 178.328 68.245 178.669 69.781 179.096L68.117 188.696C66.837 188.355 65.4717 188.099 64.021 187.928C62.5703 187.672 61.2903 187.544 60.181 187.544C57.621 187.544 55.445 188.056 53.653 189.08C51.9463 190.019 50.6663 191.299 49.813 192.92C48.9597 194.541 48.533 196.333 48.533 198.296C48.533 201.027 49.3437 203.501 50.965 205.72C52.5863 207.853 54.549 209.56 56.853 210.84C59.157 212.12 61.3757 212.76 63.509 212.76L52.373 216.984ZM36.245 230.424L33.301 220.696C36.7143 219.928 40.7677 218.861 45.461 217.496C50.2397 216.131 55.2317 214.595 60.437 212.888C65.6423 211.096 70.6343 209.219 75.413 207.256L79.253 216.6C76.7783 217.624 73.6637 218.819 69.909 220.184C66.2397 221.464 62.3143 222.744 58.133 224.024C54.037 225.389 50.069 226.627 46.229 227.736C42.389 228.931 39.061 229.827 36.245 230.424ZM95.526 223L92.966 131.608H103.334L105.894 223H95.526ZM111.512 252.696L107.8 242.968C114.029 240.92 119.192 238.573 123.288 235.928C127.469 233.283 130.755 230.467 133.144 227.48C135.619 224.493 137.368 221.464 138.392 218.392C139.416 215.235 139.928 212.205 139.928 209.304C139.928 205.123 138.989 200.899 137.112 196.632C135.32 192.28 133.315 188.184 131.096 184.344L140.44 179.608C142.061 182.595 143.469 185.539 144.664 188.44C145.944 191.341 147.053 194.072 147.992 196.632C149.016 199.192 149.827 201.539 150.424 203.672C151.619 207.341 153.155 209.859 155.032 211.224C156.995 212.504 159.64 213.144 162.968 213.144C164.76 213.144 166.04 213.656 166.808 214.68C167.661 215.619 168.088 216.771 168.088 218.136C168.088 219.501 167.491 220.781 166.296 221.976C165.101 223.085 163.565 223.64 161.688 223.64C157.933 223.64 154.861 223 152.472 221.72C150.168 220.355 148.419 218.605 147.224 216.472C146.029 214.253 145.219 211.949 144.792 209.56L148.888 211.864C148.888 217.496 147.608 222.616 145.048 227.224C142.573 231.917 139.373 235.971 135.448 239.384C131.523 242.883 127.427 245.741 123.16 247.96C118.893 250.179 115.011 251.757 111.512 252.696ZM161.75 223.64L163.03 213.144H197.59C199.382 213.144 200.662 213.656 201.43 214.68C202.283 215.619 202.71 216.771 202.71 218.136C202.71 219.501 202.113 220.781 200.918 221.976C199.723 223.085 198.187 223.64 196.31 223.64H161.75ZM196.25 223.64L197.53 213.144H232.09C233.882 213.144 235.162 213.656 235.93 214.68C236.783 215.619 237.21 216.771 237.21 218.136C237.21 219.501 236.613 220.781 235.418 221.976C234.223 223.085 232.687 223.64 230.81 223.64H196.25ZM230.75 223.64L232.03 213.144H266.59C268.382 213.144 269.662 213.656 270.43 214.68C271.283 215.619 271.71 216.771 271.71 218.136C271.71 219.501 271.113 220.781 269.918 221.976C268.723 223.085 267.187 223.64 265.31 223.64H230.75ZM265.25 223.64L266.53 213.144H301.09C302.882 213.144 304.162 213.656 304.93 214.68C305.783 215.619 306.21 216.771 306.21 218.136C306.21 219.501 305.613 220.781 304.418 221.976C303.223 223.085 301.687 223.64 299.81 223.64H265.25ZM308.578 117.504L307.426 111.36C313.229 110.933 317.922 110.037 321.506 108.672C325.175 107.307 327.821 105.685 329.442 103.808C331.149 101.845 332.002 99.8827 332.002 97.92C332.002 96.384 331.661 95.104 330.978 94.08C330.295 93.056 329.271 92.544 327.906 92.544C326.626 92.544 325.559 93.0133 324.706 93.952C323.853 94.8053 323.426 95.872 323.426 97.152C323.426 98.7733 324.109 100.309 325.474 101.76C326.839 103.125 328.546 104.149 330.594 104.832L326.626 108.928C323.895 107.904 321.549 106.411 319.586 104.448C317.709 102.485 316.77 100.053 316.77 97.152C316.77 94.1653 317.794 91.5627 319.842 89.344C321.975 87.1253 324.749 86.016 328.162 86.016C331.575 86.016 334.135 87.2107 335.842 89.6C337.634 91.904 338.53 94.5493 338.53 97.536C338.53 101.291 337.293 104.619 334.818 107.52C332.343 110.421 328.845 112.725 324.322 114.432C319.885 116.139 314.637 117.163 308.578 117.504ZM299.75 223.64L301.03 213.144C303.163 213.144 305.51 213.144 308.07 213.144C310.715 213.059 313.361 212.973 316.006 212.888C318.737 212.803 321.254 212.632 323.558 212.376C325.862 212.035 327.782 211.608 329.318 211.096C332.39 209.987 334.779 208.621 336.486 207C338.193 205.293 339.387 203.075 340.07 200.344C340.838 197.528 341.222 193.944 341.222 189.592C341.222 186.008 340.753 182.68 339.814 179.608C338.875 176.536 337.553 174.061 335.846 172.184C334.139 170.307 332.091 169.368 329.702 169.368C327.739 169.368 325.947 170.136 324.326 171.672C322.79 173.123 321.553 175 320.614 177.304C319.761 179.608 319.334 181.912 319.334 184.216C319.334 186.008 319.675 187.544 320.358 188.824C321.126 190.104 322.363 191.128 324.07 191.896C325.777 192.579 327.995 192.92 330.726 192.92C333.201 192.92 335.675 192.664 338.15 192.152C340.71 191.64 342.886 190.957 344.678 190.104L345.19 199.064C343.825 200.003 342.289 200.771 340.582 201.368C338.875 201.965 337.083 202.392 335.206 202.648C333.329 202.904 331.451 203.032 329.574 203.032C325.222 203.032 321.51 202.349 318.438 200.984C315.451 199.533 313.147 197.613 311.526 195.224C309.99 192.749 309.222 189.933 309.222 186.776C309.222 183.533 309.734 180.291 310.758 177.048C311.782 173.72 313.233 170.691 315.11 167.96C316.987 165.229 319.249 163.053 321.894 161.432C324.539 159.725 327.483 158.872 330.726 158.872C335.334 158.872 339.131 160.365 342.118 163.352C345.19 166.339 347.451 170.264 348.902 175.128C350.438 179.907 351.206 184.984 351.206 190.36C351.206 196.76 350.097 202.264 347.878 206.872C345.745 211.395 342.161 215.149 337.126 218.136C335.163 219.245 332.774 220.184 329.958 220.952C327.227 221.635 324.198 222.189 320.87 222.616C317.627 223.043 314.214 223.299 310.63 223.384C307.046 223.555 303.419 223.64 299.75 223.64ZM337.254 145.688C335.462 145.688 333.926 145.091 332.646 143.896C331.451 142.616 330.854 141.123 330.854 139.416C330.854 137.709 331.451 136.216 332.646 134.936C333.926 133.656 335.462 133.016 337.254 133.016C338.961 133.016 340.411 133.656 341.606 134.936C342.886 136.216 343.526 137.709 343.526 139.416C343.526 141.123 342.886 142.616 341.606 143.896C340.411 145.091 338.961 145.688 337.254 145.688ZM319.718 145.688C317.926 145.688 316.39 145.091 315.11 143.896C313.915 142.616 313.318 141.123 313.318 139.416C313.318 137.709 313.915 136.216 315.11 134.936C316.39 133.656 317.926 133.016 319.718 133.016C321.425 133.016 322.875 133.656 324.07 134.936C325.35 136.216 325.99 137.709 325.99 139.416C325.99 141.123 325.35 142.616 324.07 143.896C322.875 145.091 321.425 145.688 319.718 145.688Z" fill="black"/>
<path d="M408 132L444 162V253L408 223.5V132Z" fill="#FFC801"/>
<path d="M461 66L497 96V253L461 224V66Z" fill="#FFC801"/>
<path d="M514 0L550 30V253L514 223.019V0Z" fill="#FFC801"/>
<path d="M567 59L603 88.5V253L567 224V59Z" fill="#FFC801"/>
<path d="M620 115L656 144.5V253L620 223.5V115Z" fill="#FFC801"/>
</svg>
