<svg width="914" height="83" viewBox="0 0 914 83" fill="none" xmlns="http://www.w3.org/2000/svg">
<mask id="path-1-inside-1_15_78" fill="white">
<path fill-rule="evenodd" clip-rule="evenodd" d="M462 50L482.977 77.1291L479.021 80.1876L458.044 53.0584L462 50Z"/>
<path fill-rule="evenodd" clip-rule="evenodd" d="M363 80V8H368V80H363Z"/>
<path fill-rule="evenodd" clip-rule="evenodd" d="M51 8H0V3H51V8Z"/>
<path fill-rule="evenodd" clip-rule="evenodd" d="M51 44H0V39H51V44Z"/>
<path fill-rule="evenodd" clip-rule="evenodd" d="M90 80V2H95V80H90Z"/>
<path fill-rule="evenodd" clip-rule="evenodd" d="M51 43H0V38H51V43Z"/>
<path fill-rule="evenodd" clip-rule="evenodd" d="M51 80H0V75H51V80Z"/>
<path fill-rule="evenodd" clip-rule="evenodd" d="M141 80H90V75H141V80Z"/>
<path fill-rule="evenodd" clip-rule="evenodd" d="M219 80H168V75H219V80Z"/>
<path fill-rule="evenodd" clip-rule="evenodd" d="M219 44H168V39H219V44Z"/>
<path fill-rule="evenodd" clip-rule="evenodd" d="M219 8H168V3H219V8Z"/>
<path fill-rule="evenodd" clip-rule="evenodd" d="M397 8H337V3H397V8Z"/>
<path fill-rule="evenodd" clip-rule="evenodd" d="M731 82V4H736V82H731Z"/>
<path fill-rule="evenodd" clip-rule="evenodd" d="M826 80L768 4L771.975 0.966634L829.975 76.9666L826 80Z"/>
<path fill-rule="evenodd" clip-rule="evenodd" d="M767 80L827 0L831 3L771 83L767 80Z"/>
<path fill-rule="evenodd" clip-rule="evenodd" d="M909 80L851 4L854.975 0.966634L912.975 76.9666L909 80Z"/>
<path fill-rule="evenodd" clip-rule="evenodd" d="M850 80L910 0L914 3L854 83L850 80Z"/>
<path fill-rule="evenodd" clip-rule="evenodd" d="M426 81V54H431V81H426Z"/>
<path fill-rule="evenodd" clip-rule="evenodd" d="M688 4.00002V80.0066H683V4.00002H688Z"/>
<path fill-rule="evenodd" clip-rule="evenodd" d="M631 4L687 77L683.033 80.0433L627.033 7.0433L631 4Z"/>
<path fill-rule="evenodd" clip-rule="evenodd" d="M631 4V80.0066H626V4.00002L631 4Z"/>
<path fill-rule="evenodd" clip-rule="evenodd" d="M431.542 7.43379C429.556 7.46795 427.693 7.50001 426 7.5V2.5C427.54 2.50001 429.287 2.46887 431.189 2.43499C439.468 2.28745 450.668 2.08786 460.401 4.18089C466.423 5.47597 472.188 7.6998 476.476 11.5849C480.855 15.5528 483.5 21.0827 483.5 28.5C483.5 36.5676 480.596 42.4395 475.872 46.5348C471.249 50.5421 465.09 52.6712 458.817 53.7985C449.373 55.4957 438.817 55.0162 431.633 54.6899C429.376 54.5874 427.452 54.5 426 54.5V49.5C427.767 49.5 429.941 49.598 432.395 49.7086C439.559 50.0315 449.114 50.4621 457.933 48.8773C463.785 47.8255 468.939 45.9276 472.597 42.7567C476.154 39.6737 478.5 35.2162 478.5 28.5C478.5 22.4173 476.396 18.2597 473.118 15.2901C469.75 12.2377 464.952 10.274 459.349 9.06913C450.249 7.11199 439.826 7.29128 431.542 7.43379Z"/>
<path fill-rule="evenodd" clip-rule="evenodd" d="M262.327 19.7582C257.654 24.9514 254.5 32.307 254.5 42.5C254.5 52.9265 257.824 60.1478 262.684 65.0657C267.593 70.0319 274.276 72.8567 281.292 74.0444C288.309 75.2323 295.484 74.7495 301.15 73.2719C303.984 72.5331 306.361 71.5661 308.125 70.4963C309.936 69.3982 310.858 68.3414 311.192 67.5385L315.808 69.4616C314.892 71.6586 312.955 73.4151 310.718 74.7714C308.435 76.156 305.579 77.2845 302.412 78.1101C296.079 79.7614 288.19 80.2833 280.458 78.9743C272.724 77.6651 264.97 74.4914 259.128 68.5803C253.238 62.6209 249.5 54.0859 249.5 42.5C249.5 31.193 253.034 22.6111 258.61 16.4137C264.154 10.2531 271.559 6.62083 279.059 4.87743C286.552 3.13571 294.279 3.24372 300.649 4.69529C306.843 6.10675 312.444 8.96157 314.719 13.3492L310.281 15.6508C309.056 13.2884 305.344 10.8932 299.538 9.57033C293.909 8.28753 286.948 8.17679 280.191 9.74758C273.441 11.3167 267.033 14.5282 262.327 19.7582Z"/>
<path fill-rule="evenodd" clip-rule="evenodd" d="M551 75C569.901 75 585 60.1038 585 42C585 23.8962 569.901 9 551 9C532.099 9 517 23.8962 517 42C517 60.1038 532.099 75 551 75ZM551 80C572.539 80 590 62.9868 590 42C590 21.0132 572.539 4 551 4C529.461 4 512 21.0132 512 42C512 62.9868 529.461 80 551 80Z"/>
</mask>
<path fill-rule="evenodd" clip-rule="evenodd" d="M462 50L482.977 77.1291L479.021 80.1876L458.044 53.0584L462 50Z" fill="#0284C7"/>
<path fill-rule="evenodd" clip-rule="evenodd" d="M363 80V8H368V80H363Z" fill="#0284C7"/>
<path fill-rule="evenodd" clip-rule="evenodd" d="M51 8H0V3H51V8Z" fill="#0284C7"/>
<path fill-rule="evenodd" clip-rule="evenodd" d="M51 44H0V39H51V44Z" fill="#0284C7"/>
<path fill-rule="evenodd" clip-rule="evenodd" d="M90 80V2H95V80H90Z" fill="#0284C7"/>
<path fill-rule="evenodd" clip-rule="evenodd" d="M51 43H0V38H51V43Z" fill="#0284C7"/>
<path fill-rule="evenodd" clip-rule="evenodd" d="M51 80H0V75H51V80Z" fill="#0284C7"/>
<path fill-rule="evenodd" clip-rule="evenodd" d="M141 80H90V75H141V80Z" fill="#0284C7"/>
<path fill-rule="evenodd" clip-rule="evenodd" d="M219 80H168V75H219V80Z" fill="#0284C7"/>
<path fill-rule="evenodd" clip-rule="evenodd" d="M219 44H168V39H219V44Z" fill="#0284C7"/>
<path fill-rule="evenodd" clip-rule="evenodd" d="M219 8H168V3H219V8Z" fill="#0284C7"/>
<path fill-rule="evenodd" clip-rule="evenodd" d="M397 8H337V3H397V8Z" fill="#0284C7"/>
<path fill-rule="evenodd" clip-rule="evenodd" d="M731 82V4H736V82H731Z" fill="#0284C7"/>
<path fill-rule="evenodd" clip-rule="evenodd" d="M826 80L768 4L771.975 0.966634L829.975 76.9666L826 80Z" fill="#0284C7"/>
<path fill-rule="evenodd" clip-rule="evenodd" d="M767 80L827 0L831 3L771 83L767 80Z" fill="#0284C7"/>
<path fill-rule="evenodd" clip-rule="evenodd" d="M909 80L851 4L854.975 0.966634L912.975 76.9666L909 80Z" fill="#0284C7"/>
<path fill-rule="evenodd" clip-rule="evenodd" d="M850 80L910 0L914 3L854 83L850 80Z" fill="#0284C7"/>
<path fill-rule="evenodd" clip-rule="evenodd" d="M426 81V54H431V81H426Z" fill="#0284C7"/>
<path fill-rule="evenodd" clip-rule="evenodd" d="M688 4.00002V80.0066H683V4.00002H688Z" fill="#0284C7"/>
<path fill-rule="evenodd" clip-rule="evenodd" d="M631 4L687 77L683.033 80.0433L627.033 7.0433L631 4Z" fill="#0284C7"/>
<path fill-rule="evenodd" clip-rule="evenodd" d="M631 4V80.0066H626V4.00002L631 4Z" fill="#0284C7"/>
<path fill-rule="evenodd" clip-rule="evenodd" d="M431.542 7.43379C429.556 7.46795 427.693 7.50001 426 7.5V2.5C427.54 2.50001 429.287 2.46887 431.189 2.43499C439.468 2.28745 450.668 2.08786 460.401 4.18089C466.423 5.47597 472.188 7.6998 476.476 11.5849C480.855 15.5528 483.5 21.0827 483.5 28.5C483.5 36.5676 480.596 42.4395 475.872 46.5348C471.249 50.5421 465.09 52.6712 458.817 53.7985C449.373 55.4957 438.817 55.0162 431.633 54.6899C429.376 54.5874 427.452 54.5 426 54.5V49.5C427.767 49.5 429.941 49.598 432.395 49.7086C439.559 50.0315 449.114 50.4621 457.933 48.8773C463.785 47.8255 468.939 45.9276 472.597 42.7567C476.154 39.6737 478.5 35.2162 478.5 28.5C478.5 22.4173 476.396 18.2597 473.118 15.2901C469.75 12.2377 464.952 10.274 459.349 9.06913C450.249 7.11199 439.826 7.29128 431.542 7.43379Z" fill="#0284C7"/>
<path fill-rule="evenodd" clip-rule="evenodd" d="M262.327 19.7582C257.654 24.9514 254.5 32.307 254.5 42.5C254.5 52.9265 257.824 60.1478 262.684 65.0657C267.593 70.0319 274.276 72.8567 281.292 74.0444C288.309 75.2323 295.484 74.7495 301.15 73.2719C303.984 72.5331 306.361 71.5661 308.125 70.4963C309.936 69.3982 310.858 68.3414 311.192 67.5385L315.808 69.4616C314.892 71.6586 312.955 73.4151 310.718 74.7714C308.435 76.156 305.579 77.2845 302.412 78.1101C296.079 79.7614 288.19 80.2833 280.458 78.9743C272.724 77.6651 264.97 74.4914 259.128 68.5803C253.238 62.6209 249.5 54.0859 249.5 42.5C249.5 31.193 253.034 22.6111 258.61 16.4137C264.154 10.2531 271.559 6.62083 279.059 4.87743C286.552 3.13571 294.279 3.24372 300.649 4.69529C306.843 6.10675 312.444 8.96157 314.719 13.3492L310.281 15.6508C309.056 13.2884 305.344 10.8932 299.538 9.57033C293.909 8.28753 286.948 8.17679 280.191 9.74758C273.441 11.3167 267.033 14.5282 262.327 19.7582Z" fill="#0284C7"/>
<path fill-rule="evenodd" clip-rule="evenodd" d="M551 75C569.901 75 585 60.1038 585 42C585 23.8962 569.901 9 551 9C532.099 9 517 23.8962 517 42C517 60.1038 532.099 75 551 75ZM551 80C572.539 80 590 62.9868 590 42C590 21.0132 572.539 4 551 4C529.461 4 512 21.0132 512 42C512 62.9868 529.461 80 551 80Z" fill="#0284C7"/>
<path d="M482.977 77.1291L484.2 78.7113L485.782 77.4879L484.559 75.9057L482.977 77.1291ZM462 50L463.582 48.7766L462.359 47.1944L460.777 48.4178L462 50ZM479.021 80.1876L477.439 81.4109L478.662 82.9931L480.244 81.7698L479.021 80.1876ZM458.044 53.0584L456.821 51.4762L455.239 52.6996L456.462 54.2818L458.044 53.0584ZM363 8V6H361V8H363ZM363 80H361V82H363V80ZM368 8H370V6H368V8ZM368 80V82H370V80H368ZM0 8H-2V10H0V8ZM51 8V10H53V8H51ZM0 3V1H-2V3H0ZM51 3H53V1H51V3ZM0 44H-2V46H0V44ZM51 44V46H53V44H51ZM0 39V37H-2V39H0ZM51 39H53V37H51V39ZM90 2V0H88V2H90ZM90 80H88V82H90V80ZM95 2H97V0H95V2ZM95 80V82H97V80H95ZM0 43H-2V45H0V43ZM51 43V45H53V43H51ZM0 38V36H-2V38H0ZM51 38H53V36H51V38ZM0 80H-2V82H0V80ZM51 80V82H53V80H51ZM0 75V73H-2V75H0ZM51 75H53V73H51V75ZM141 80V82H143V80H141ZM90 75V73H88V75H90ZM141 75H143V73H141V75ZM168 80H166V82H168V80ZM219 80V82H221V80H219ZM168 75V73H166V75H168ZM219 75H221V73H219V75ZM168 44H166V46H168V44ZM219 44V46H221V44H219ZM168 39V37H166V39H168ZM219 39H221V37H219V39ZM168 8H166V10H168V8ZM219 8V10H221V8H219ZM168 3V1H166V3H168ZM219 3H221V1H219V3ZM337 8H335V10H337V8ZM397 8V10H399V8H397ZM337 3V1H335V3H337ZM397 3H399V1H397V3ZM731 4V2H729V4H731ZM731 82H729V84H731V82ZM736 4H738V2H736V4ZM736 82V84H738V82H736ZM768 4L766.787 2.4101L765.197 3.62345L766.41 5.21335L768 4ZM826 80L824.41 81.2133L825.623 82.8033L827.213 81.5899L826 80ZM771.975 0.966634L773.565 -0.246713L772.351 -1.83662L770.761 -0.623265L771.975 0.966634ZM829.975 76.9666L831.188 78.5565L832.778 77.3432L831.565 75.7533L829.975 76.9666ZM827 0L828.2 -1.6L826.6 -2.8L825.4 -1.2L827 0ZM767 80L765.4 78.8L764.2 80.4L765.8 81.6L767 80ZM831 3L832.6 4.2L833.8 2.6L832.2 1.4L831 3ZM771 83L769.8 84.6L771.4 85.8L772.6 84.2L771 83ZM851 4L849.787 2.4101L848.197 3.62345L849.41 5.21335L851 4ZM909 80L907.41 81.2133L908.623 82.8033L910.213 81.5899L909 80ZM854.975 0.966634L856.565 -0.246713L855.351 -1.83662L853.761 -0.623265L854.975 0.966634ZM912.975 76.9666L914.188 78.5565L915.778 77.3432L914.565 75.7533L912.975 76.9666ZM910 0L911.2 -1.6L909.6 -2.8L908.4 -1.2L910 0ZM850 80L848.4 78.8L847.2 80.4L848.8 81.6L850 80ZM914 3L915.6 4.2L916.8 2.6L915.2 1.4L914 3ZM854 83L852.8 84.6L854.4 85.8L855.6 84.2L854 83ZM426 54V52H424V54H426ZM426 81H424V83H426V81ZM431 54H433V52H431V54ZM431 81V83H433V81H431ZM688 80.0066V82.0066H690V80.0066H688ZM688 4.00002H690V2.00002H688V4.00002ZM683 80.0066H681V82.0066H683V80.0066ZM683 4.00002V2.00002H681V4.00002H683ZM687 77L688.217 78.5869L689.804 77.3695L688.587 75.7827L687 77ZM631 4L632.587 2.78268L631.986 2L631 2L631 4ZM683.033 80.0433L681.446 81.2606L682.663 82.8475L684.25 81.6302L683.033 80.0433ZM627.033 7.0433L625.816 5.45643L624.229 6.67375L625.446 8.26062L627.033 7.0433ZM631 80.0066V82.0066H633V80.0066H631ZM626 80.0066H624V82.0066H626V80.0066ZM626 4.00002L626 2.00002L624 2.00002V4.00002H626ZM426 7.5H424V9.5L426 9.5L426 7.5ZM431.542 7.43379L431.507 5.43409L431.507 5.43409L431.542 7.43379ZM426 2.5L426 0.500003L424 0.500001V2.5H426ZM431.189 2.43499L431.153 0.435304L431.153 0.435304L431.189 2.43499ZM460.401 4.18089L459.98 6.13618L460.401 4.18089ZM476.476 11.5849L477.818 10.1028L477.818 10.1028L476.476 11.5849ZM475.872 46.5348L477.182 48.0461L477.182 48.0461L475.872 46.5348ZM458.817 53.7985L458.463 51.83L458.463 51.83L458.817 53.7985ZM431.633 54.6899L431.542 56.6878L431.542 56.6878L431.633 54.6899ZM426 54.5H424V56.5H426V54.5ZM426 49.5V47.5H424V49.5H426ZM432.395 49.7086L432.305 51.7065L432.305 51.7065L432.395 49.7086ZM457.933 48.8773L458.287 50.8458L458.287 50.8458L457.933 48.8773ZM472.597 42.7567L471.287 41.2454L471.287 41.2454L472.597 42.7567ZM473.118 15.2901L471.775 16.7722L471.775 16.7722L473.118 15.2901ZM459.349 9.06913L458.929 11.0244L458.929 11.0244L459.349 9.06913ZM254.5 42.5L256.5 42.5L254.5 42.5ZM262.327 19.7582L263.814 21.096L263.814 21.096L262.327 19.7582ZM262.684 65.0657L261.262 66.4715L261.262 66.4715L262.684 65.0657ZM281.292 74.0444L281.626 72.0725L281.626 72.0725L281.292 74.0444ZM301.15 73.2719L301.655 75.2072L301.655 75.2072L301.15 73.2719ZM308.125 70.4963L309.163 72.2063L309.163 72.2063L308.125 70.4963ZM311.192 67.5385L311.961 65.6923L310.115 64.9231L309.346 66.7693L311.192 67.5385ZM315.808 69.4616L317.654 70.2308L318.423 68.3846L316.577 67.6154L315.808 69.4616ZM310.718 74.7714L311.755 76.4815L311.755 76.4815L310.718 74.7714ZM302.412 78.1101L302.917 80.0454L302.917 80.0454L302.412 78.1101ZM280.458 78.9743L280.792 77.0023L280.792 77.0023L280.458 78.9743ZM259.128 68.5803L260.551 67.1745L260.551 67.1745L259.128 68.5803ZM249.5 42.5L247.5 42.5L249.5 42.5ZM258.61 16.4137L260.097 17.7515L260.097 17.7515L258.61 16.4137ZM279.059 4.87743L278.606 2.92937L278.606 2.92937L279.059 4.87743ZM300.649 4.69529L300.205 6.64531L300.205 6.64531L300.649 4.69529ZM314.719 13.3492L315.64 15.1247L317.416 14.2041L316.495 12.4286L314.719 13.3492ZM310.281 15.6508L308.505 16.5714L309.426 18.3469L311.201 17.4263L310.281 15.6508ZM299.538 9.57033L299.983 7.62032L299.983 7.62032L299.538 9.57033ZM280.191 9.74758L279.738 7.79952L279.738 7.79952L280.191 9.74758ZM484.559 75.9057L463.582 48.7766L460.418 51.2234L481.394 78.3525L484.559 75.9057ZM480.244 81.7698L484.2 78.7113L481.753 75.5469L477.798 78.6054L480.244 81.7698ZM456.462 54.2818L477.439 81.4109L480.603 78.9642L459.627 51.8351L456.462 54.2818ZM460.777 48.4178L456.821 51.4762L459.268 54.6406L463.223 51.5822L460.777 48.4178ZM361 8V80H365V8H361ZM368 6H363V10H368V6ZM370 80V8H366V80H370ZM363 82H368V78H363V82ZM0 10H51V6H0V10ZM-2 3V8H2V3H-2ZM51 1H0V5H51V1ZM53 8V3H49V8H53ZM0 46H51V42H0V46ZM-2 39V44H2V39H-2ZM51 37H0V41H51V37ZM53 44V39H49V44H53ZM88 2V80H92V2H88ZM95 0H90V4H95V0ZM97 80V2H93V80H97ZM90 82H95V78H90V82ZM0 45H51V41H0V45ZM-2 38V43H2V38H-2ZM51 36H0V40H51V36ZM53 43V38H49V43H53ZM0 82H51V78H0V82ZM-2 75V80H2V75H-2ZM51 73H0V77H51V73ZM53 80V75H49V80H53ZM90 82H141V78H90V82ZM88 75V80H92V75H88ZM141 73H90V77H141V73ZM143 80V75H139V80H143ZM168 82H219V78H168V82ZM166 75V80H170V75H166ZM219 73H168V77H219V73ZM221 80V75H217V80H221ZM168 46H219V42H168V46ZM166 39V44H170V39H166ZM219 37H168V41H219V37ZM221 44V39H217V44H221ZM168 10H219V6H168V10ZM166 3V8H170V3H166ZM219 1H168V5H219V1ZM221 8V3H217V8H221ZM337 10H397V6H337V10ZM335 3V8H339V3H335ZM397 1H337V5H397V1ZM399 8V3H395V8H399ZM729 4V82H733V4H729ZM736 2H731V6H736V2ZM738 82V4H734V82H738ZM731 84H736V80H731V84ZM766.41 5.21335L824.41 81.2133L827.59 78.7867L769.59 2.78665L766.41 5.21335ZM770.761 -0.623265L766.787 2.4101L769.213 5.5899L773.188 2.55653L770.761 -0.623265ZM831.565 75.7533L773.565 -0.246713L770.385 2.17998L828.385 78.18L831.565 75.7533ZM827.213 81.5899L831.188 78.5565L828.761 75.3767L824.787 78.4101L827.213 81.5899ZM825.4 -1.2L765.4 78.8L768.6 81.2L828.6 1.2L825.4 -1.2ZM832.2 1.4L828.2 -1.6L825.8 1.6L829.8 4.6L832.2 1.4ZM772.6 84.2L832.6 4.2L829.4 1.8L769.4 81.8L772.6 84.2ZM765.8 81.6L769.8 84.6L772.2 81.4L768.2 78.4L765.8 81.6ZM849.41 5.21335L907.41 81.2133L910.59 78.7867L852.59 2.78665L849.41 5.21335ZM853.761 -0.623265L849.787 2.4101L852.213 5.5899L856.188 2.55653L853.761 -0.623265ZM914.565 75.7533L856.565 -0.246713L853.385 2.17998L911.385 78.18L914.565 75.7533ZM910.213 81.5899L914.188 78.5565L911.761 75.3767L907.787 78.4101L910.213 81.5899ZM908.4 -1.2L848.4 78.8L851.6 81.2L911.6 1.2L908.4 -1.2ZM915.2 1.4L911.2 -1.6L908.8 1.6L912.8 4.6L915.2 1.4ZM855.6 84.2L915.6 4.2L912.4 1.8L852.4 81.8L855.6 84.2ZM848.8 81.6L852.8 84.6L855.2 81.4L851.2 78.4L848.8 81.6ZM424 54V81H428V54H424ZM431 52H426V56H431V52ZM433 81V54H429V81H433ZM426 83H431V79H426V83ZM690 80.0066V4.00002H686V80.0066H690ZM683 82.0066H688V78.0066H683V82.0066ZM681 4.00002V80.0066H685V4.00002H681ZM688 2.00002H683V6.00002H688V2.00002ZM688.587 75.7827L632.587 2.78268L629.413 5.21732L685.413 78.2173L688.587 75.7827ZM684.25 81.6302L688.217 78.5869L685.783 75.4131L681.816 78.4564L684.25 81.6302ZM625.446 8.26062L681.446 81.2606L684.62 78.826L628.62 5.82598L625.446 8.26062ZM629.783 2.41314L625.816 5.45643L628.25 8.63016L632.217 5.58686L629.783 2.41314ZM633 80.0066V4H629V80.0066H633ZM626 82.0066H631V78.0066H626V82.0066ZM624 4.00002V80.0066H628V4.00002H624ZM631 2L626 2.00002L626 6.00002L631 6L631 2ZM426 9.5C427.713 9.50001 429.594 9.46758 431.576 9.43349L431.507 5.43409C429.517 5.46833 427.672 5.50001 426 5.5L426 9.5ZM424 2.5V7.5H428V2.5H424ZM431.153 0.435304C429.247 0.469275 427.519 0.500005 426 0.500003L426 4.5C427.562 4.50001 429.328 4.46846 431.224 4.43467L431.153 0.435304ZM460.821 2.22559C450.824 0.0756407 439.388 0.288556 431.153 0.435304L431.224 4.43467C439.548 4.28633 450.512 4.10008 459.98 6.13618L460.821 2.22559ZM477.818 10.1028C473.163 5.88464 467.011 3.55674 460.821 2.22559L459.98 6.13618C465.835 7.3952 471.213 9.51496 475.133 13.067L477.818 10.1028ZM485.5 28.5C485.5 20.5491 482.638 14.4702 477.818 10.1028L475.133 13.067C479.071 16.6354 481.5 21.6163 481.5 28.5H485.5ZM477.182 48.0461C482.374 43.5456 485.5 37.1079 485.5 28.5H481.5C481.5 36.0274 478.819 41.3334 474.562 45.0236L477.182 48.0461ZM459.171 55.7669C465.611 54.6095 472.173 52.3879 477.182 48.0461L474.562 45.0236C470.325 48.6963 464.568 50.7329 458.463 51.83L459.171 55.7669ZM431.542 56.6878C438.69 57.0125 449.471 57.5102 459.171 55.7669L458.463 51.83C449.276 53.4811 438.943 53.0199 431.724 52.692L431.542 56.6878ZM426 56.5C427.396 56.5 429.267 56.5845 431.542 56.6878L431.724 52.692C429.485 52.5903 427.508 52.5 426 52.5V56.5ZM424 49.5V54.5H428V49.5H424ZM432.485 47.7106C430.046 47.6007 427.822 47.5 426 47.5V51.5C427.712 51.5 429.835 51.5952 432.305 51.7065L432.485 47.7106ZM457.579 46.9088C449.016 48.4477 439.684 48.0351 432.485 47.7106L432.305 51.7065C439.434 52.0279 449.212 52.4766 458.287 50.8458L457.579 46.9088ZM471.287 41.2454C468.015 44.0819 463.264 45.8873 457.579 46.9088L458.287 50.8458C464.307 49.7638 469.863 47.7734 473.907 44.2679L471.287 41.2454ZM476.5 28.5C476.5 34.6753 474.377 38.5672 471.287 41.2454L473.907 44.2679C477.93 40.7803 480.5 35.7572 480.5 28.5H476.5ZM471.775 16.7722C474.612 19.3427 476.5 22.9515 476.5 28.5H480.5C480.5 21.8831 478.179 17.1767 474.461 13.808L471.775 16.7722ZM458.929 11.0244C464.364 12.1933 468.774 14.0529 471.775 16.7722L474.461 13.808C470.725 10.4225 465.54 8.35481 459.77 7.11383L458.929 11.0244ZM431.576 9.43349C439.908 9.29017 450.093 9.12423 458.929 11.0244L459.77 7.11383C450.404 5.09974 439.745 5.29238 431.507 5.43409L431.576 9.43349ZM256.5 42.5C256.5 32.7529 259.502 25.8877 263.814 21.096L260.84 18.4204C255.806 24.0152 252.5 31.8612 252.5 42.5L256.5 42.5ZM264.107 63.6598C259.658 59.1584 256.5 52.4624 256.5 42.5L252.5 42.5C252.5 53.3906 255.99 61.1372 261.262 66.4715L264.107 63.6598ZM281.626 72.0725C274.897 70.9333 268.642 68.2483 264.107 63.6598L261.262 66.4715C266.543 71.8156 273.655 74.78 280.958 76.0163L281.626 72.0725ZM300.646 71.3366C295.245 72.7447 288.357 73.2119 281.626 72.0725L280.958 76.0163C288.262 77.2527 295.722 76.7543 301.655 75.2072L300.646 71.3366ZM307.088 68.7862C305.532 69.7302 303.346 70.6326 300.646 71.3366L301.655 75.2072C304.622 74.4337 307.191 73.4021 309.163 72.2063L307.088 68.7862ZM309.346 66.7693C309.244 67.0152 308.728 67.7919 307.088 68.7862L309.163 72.2063C311.144 71.0045 312.472 69.6677 313.038 68.3077L309.346 66.7693ZM316.577 67.6154L311.961 65.6923L310.423 69.3846L315.038 71.3077L316.577 67.6154ZM311.755 76.4815C314.162 75.0222 316.506 72.9858 317.654 70.2308L313.962 68.6923C313.279 70.3314 311.748 71.8081 309.681 73.0614L311.755 76.4815ZM302.917 80.0454C306.217 79.185 309.265 77.9919 311.755 76.4815L309.681 73.0614C307.606 74.32 304.941 75.3839 301.907 76.1748L302.917 80.0454ZM280.124 80.9462C288.143 82.3037 296.317 81.7662 302.917 80.0454L301.907 76.1748C295.841 77.7567 288.238 78.2629 280.792 77.0023L280.124 80.9462ZM257.706 69.9862C263.921 76.2753 272.104 79.5886 280.124 80.9462L280.792 77.0023C273.345 75.7417 266.019 72.7075 260.551 67.1745L257.706 69.9862ZM247.5 42.5C247.5 54.5495 251.404 63.6099 257.706 69.9862L260.551 67.1745C255.073 61.6318 251.5 53.6224 251.5 42.5L247.5 42.5ZM257.124 15.0759C251.185 21.6751 247.5 30.7475 247.5 42.5L251.5 42.5C251.5 31.6384 254.882 23.5471 260.097 17.7515L257.124 15.0759ZM278.606 2.92937C270.806 4.74245 263.002 8.54294 257.124 15.0759L260.097 17.7515C265.306 11.9632 272.312 8.49922 279.512 6.82549L278.606 2.92937ZM301.094 2.74528C294.427 1.22619 286.393 1.11928 278.606 2.92937L279.512 6.82549C286.71 5.15214 294.131 5.26124 300.205 6.64531L301.094 2.74528ZM316.495 12.4286C313.799 7.23003 307.442 4.1918 301.094 2.74528L300.205 6.64531C306.245 8.0217 311.089 10.6931 312.944 14.2698L316.495 12.4286ZM311.201 17.4263L315.64 15.1247L313.799 11.5737L309.36 13.8753L311.201 17.4263ZM299.094 11.5203C301.841 12.1462 304.02 13.0104 305.616 13.946C307.239 14.8979 308.129 15.8461 308.505 16.5714L312.056 14.7302C311.207 13.0932 309.629 11.6626 307.639 10.4955C305.621 9.31221 303.042 8.31734 299.983 7.62032L299.094 11.5203ZM280.644 11.6956C287.107 10.1932 293.761 10.3051 299.094 11.5203L299.983 7.62032C294.057 6.27001 286.79 6.16036 279.738 7.79952L280.644 11.6956ZM263.814 21.096C268.185 16.2381 274.194 13.195 280.644 11.6956L279.738 7.79952C272.688 9.43839 265.882 12.8183 260.84 18.4204L263.814 21.096ZM583 42C583 58.9527 568.843 73 551 73V77C570.958 77 587 61.2548 587 42H583ZM551 11C568.843 11 583 25.0473 583 42H587C587 22.7452 570.958 7 551 7V11ZM519 42C519 25.0473 533.157 11 551 11V7C531.042 7 515 22.7452 515 42H519ZM551 73C533.157 73 519 58.9527 519 42H515C515 61.2548 531.042 77 551 77V73ZM588 42C588 61.8336 571.484 78 551 78V82C573.594 82 592 64.14 592 42H588ZM551 6C571.484 6 588 22.1664 588 42H592C592 19.86 573.594 2 551 2V6ZM514 42C514 22.1664 530.516 6 551 6V2C528.406 2 510 19.86 510 42H514ZM551 78C530.516 78 514 61.8336 514 42H510C510 64.14 528.406 82 551 82V78Z" fill="#0284C7" mask="url(#path-1-inside-1_15_78)"/>
</svg>
