<svg width="914" height="83" viewBox="0 0 914 83" fill="none" xmlns="http://www.w3.org/2000/svg">
<path fill-rule="evenodd" clip-rule="evenodd" d="M462 50L482.977 77.1291L479.021 80.1876L458.044 53.0584L462 50Z" fill="#5E309A"/>
<path fill-rule="evenodd" clip-rule="evenodd" d="M363 80V8H368V80H363Z" fill="#5E309A"/>
<path fill-rule="evenodd" clip-rule="evenodd" d="M51 8H0V3H51V8Z" fill="#5E309A"/>
<path fill-rule="evenodd" clip-rule="evenodd" d="M51 44H0V39H51V44Z" fill="#5E309A"/>
<path fill-rule="evenodd" clip-rule="evenodd" d="M90 80V2H95V80H90Z" fill="#5E309A"/>
<path fill-rule="evenodd" clip-rule="evenodd" d="M51 43H0V38H51V43Z" fill="#5E309A"/>
<path fill-rule="evenodd" clip-rule="evenodd" d="M51 80H0V75H51V80Z" fill="#5E309A"/>
<path fill-rule="evenodd" clip-rule="evenodd" d="M141 80H90V75H141V80Z" fill="#5E309A"/>
<path fill-rule="evenodd" clip-rule="evenodd" d="M219 80H168V75H219V80Z" fill="#5E309A"/>
<path fill-rule="evenodd" clip-rule="evenodd" d="M219 44H168V39H219V44Z" fill="#5E309A"/>
<path fill-rule="evenodd" clip-rule="evenodd" d="M219 8H168V3H219V8Z" fill="#5E309A"/>
<path fill-rule="evenodd" clip-rule="evenodd" d="M397 8H337V3H397V8Z" fill="#5E309A"/>
<path fill-rule="evenodd" clip-rule="evenodd" d="M731 82V4H736V82H731Z" fill="#5E309A"/>
<path fill-rule="evenodd" clip-rule="evenodd" d="M826 80L768 4L771.975 0.966634L829.975 76.9666L826 80Z" fill="#5E309A"/>
<path fill-rule="evenodd" clip-rule="evenodd" d="M767 80L827 0L831 3L771 83L767 80Z" fill="#5E309A"/>
<path fill-rule="evenodd" clip-rule="evenodd" d="M909 80L851 4L854.975 0.966634L912.975 76.9666L909 80Z" fill="#5E309A"/>
<path fill-rule="evenodd" clip-rule="evenodd" d="M850 80L910 0L914 3L854 83L850 80Z" fill="#5E309A"/>
<path fill-rule="evenodd" clip-rule="evenodd" d="M426 81V54H431V81H426Z" fill="#5E309A"/>
<path fill-rule="evenodd" clip-rule="evenodd" d="M688 4.00002V80.0066H683V4.00002H688Z" fill="#5E309A"/>
<path fill-rule="evenodd" clip-rule="evenodd" d="M631 4L687 77L683.033 80.0433L627.033 7.0433L631 4Z" fill="#5E309A"/>
<path fill-rule="evenodd" clip-rule="evenodd" d="M631 4V80.0066H626V4.00002L631 4Z" fill="#5E309A"/>
<path fill-rule="evenodd" clip-rule="evenodd" d="M431.542 7.43379C429.556 7.46795 427.693 7.50001 426 7.5V2.5C427.54 2.50001 429.287 2.46887 431.189 2.43499C439.468 2.28745 450.668 2.08786 460.401 4.18089C466.423 5.47597 472.188 7.6998 476.476 11.5849C480.855 15.5528 483.5 21.0827 483.5 28.5C483.5 36.5676 480.596 42.4395 475.872 46.5348C471.249 50.5421 465.09 52.6712 458.817 53.7985C449.373 55.4957 438.817 55.0162 431.633 54.6899C429.376 54.5874 427.452 54.5 426 54.5V49.5C427.767 49.5 429.941 49.598 432.395 49.7086C439.559 50.0315 449.114 50.4621 457.933 48.8773C463.785 47.8255 468.939 45.9276 472.597 42.7567C476.154 39.6737 478.5 35.2162 478.5 28.5C478.5 22.4173 476.396 18.2597 473.118 15.2901C469.75 12.2377 464.952 10.274 459.349 9.06913C450.249 7.11199 439.826 7.29128 431.542 7.43379Z" fill="#5E309A"/>
<path fill-rule="evenodd" clip-rule="evenodd" d="M262.327 19.7582C257.654 24.9514 254.5 32.307 254.5 42.5C254.5 52.9265 257.824 60.1478 262.684 65.0657C267.593 70.0319 274.276 72.8567 281.292 74.0444C288.309 75.2323 295.484 74.7495 301.15 73.2719C303.984 72.5331 306.361 71.5661 308.125 70.4963C309.936 69.3982 310.858 68.3414 311.192 67.5385L315.808 69.4616C314.892 71.6586 312.955 73.4151 310.718 74.7714C308.435 76.156 305.579 77.2845 302.412 78.1101C296.079 79.7614 288.19 80.2833 280.458 78.9743C272.724 77.6651 264.97 74.4914 259.128 68.5803C253.238 62.6209 249.5 54.0859 249.5 42.5C249.5 31.193 253.034 22.6111 258.61 16.4137C264.154 10.2531 271.559 6.62083 279.059 4.87743C286.552 3.13571 294.279 3.24372 300.649 4.69529C306.843 6.10675 312.444 8.96157 314.719 13.3492L310.281 15.6508C309.056 13.2884 305.344 10.8932 299.538 9.57033C293.909 8.28753 286.948 8.17679 280.191 9.74758C273.441 11.3167 267.033 14.5282 262.327 19.7582Z" fill="#5E309A"/>
<path fill-rule="evenodd" clip-rule="evenodd" d="M551 75C569.901 75 585 60.1038 585 42C585 23.8962 569.901 9 551 9C532.099 9 517 23.8962 517 42C517 60.1038 532.099 75 551 75ZM551 80C572.539 80 590 62.9868 590 42C590 21.0132 572.539 4 551 4C529.461 4 512 21.0132 512 42C512 62.9868 529.461 80 551 80Z" fill="#5E309A"/>
</svg>
